<svg xmlns="http://www.w3.org/2000/svg" viewBox="0 0 22 22" width="22" height="22">
	<style>
		tspan { white-space:pre }
		.shp0 { fill: #000000 } 
	</style>
	<path id="Layer" class="shp0" d="M11.19 9.07L18.97 1.29C19.25 1.02 19.63 0.88 20.02 0.88C20.41 0.89 20.79 1.05 21.06 1.32C21.34 1.6 21.5 1.97 21.5 2.36C21.51 2.75 21.36 3.13 21.09 3.41L13.31 11.19L21.09 18.97C21.39 19.25 21.56 19.63 21.56 20.04C21.57 20.45 21.41 20.84 21.12 21.12C20.83 21.41 20.44 21.57 20.04 21.56C19.63 21.55 19.25 21.39 18.97 21.09L11.19 13.31L3.41 21.09C3.13 21.38 2.75 21.55 2.35 21.55C1.95 21.55 1.56 21.4 1.27 21.11C0.99 20.83 0.83 20.44 0.84 20.04C0.84 19.63 1 19.25 1.29 18.97L9.07 11.19L1.29 3.41C1.02 3.13 0.87 2.75 0.87 2.36C0.88 1.97 1.03 1.59 1.31 1.31C1.59 1.03 1.97 0.88 2.36 0.87C2.75 0.87 3.13 1.02 3.41 1.29L11.19 9.07Z" />
</svg>