<svg xmlns="http://www.w3.org/2000/svg" viewBox="0 0 57 57" width="57" height="57">
	<style>
		tspan { white-space:pre }
		.shp0 { fill: #ffffff } 
	</style>
	<g id="Layer">
		<path id="Layer" class="shp0" d="M14.09 53.78L3.25 53.78L3.25 17.67L14.09 17.67L14.09 53.78ZM53.81 53.78L42.98 53.78L42.98 34.49C42.98 29.46 41.19 26.96 37.64 26.96C34.82 26.96 33.04 28.36 32.14 31.17C32.14 35.72 32.14 53.78 32.14 53.78L21.31 53.78C21.31 53.78 21.45 21.28 21.31 17.67L29.86 17.67L30.52 24.89L30.74 24.89C32.97 21.28 36.52 18.83 41.38 18.83C45.09 18.83 48.08 19.86 50.37 22.44C52.67 25.03 53.81 28.51 53.81 33.39L53.81 53.78Z" />
	</g>
	<g id="Layer">
		<path id="Layer" class="shp0" d="M8.67 14.05C5.57 14.05 3.07 11.63 3.07 8.64C3.07 5.64 5.57 3.22 8.67 3.22C11.76 3.22 14.27 5.64 14.27 8.64C14.27 11.63 11.76 14.05 8.67 14.05Z" />
	</g>
</svg>