<svg xmlns="http://www.w3.org/2000/svg" viewBox="0 0 57 57" width="57" height="57">
	<style>
		tspan { white-space:pre }
		.shp0 { fill: #ffffff } 
	</style>
	<path id="Layer" class="shp0" d="M56.32 11.91C54.25 12.82 52.03 13.44 49.69 13.72C52.08 12.29 53.9 10.04 54.76 7.34C52.54 8.66 50.07 9.62 47.44 10.14C45.34 7.9 42.34 6.5 39.02 6.5C32.65 6.5 27.49 11.66 27.49 18.03C27.49 18.94 27.59 19.82 27.78 20.66C18.2 20.18 9.7 15.59 4.01 8.61C3.01 10.31 2.45 12.29 2.45 14.41C2.45 18.41 4.48 21.94 7.58 24.01C5.69 23.95 3.91 23.43 2.35 22.57C2.35 22.61 2.35 22.66 2.35 22.71C2.35 28.3 6.33 32.96 11.61 34.02C10.64 34.28 9.62 34.43 8.57 34.43C7.82 34.43 7.1 34.35 6.4 34.22C7.86 38.8 12.12 42.14 17.17 42.23C13.22 45.32 8.25 47.17 2.84 47.17C1.91 47.17 1 47.11 0.09 47.01C5.2 50.28 11.26 52.19 17.78 52.19C38.99 52.19 50.6 34.61 50.6 19.37C50.6 18.87 50.59 18.37 50.56 17.87C52.82 16.25 54.77 14.22 56.32 11.91Z" />
</svg>